/* XPM */
static char *dummy[]={
"48 50 174 2",
".e c None",
".a c #000000",
".# c #01326e",
".D c #060606",
"aE c #070707",
".d c #0a0a0a",
".k c #0f0f0f",
"aP c #111111",
".c c #131313",
"as c #161616",
".o c #1c1c1c",
".O c #1d1d1d",
".b c #202020",
"aO c #252525",
".p c #2b2b2b",
".v c #2e2e2e",
".E c #2f2f2f",
".Y c #333333",
".u c #353535",
"#g c #373737",
".f c #383838",
"aL c #3d3d3d",
".j c #3e3e3e",
"aQ c #4c4c4c",
".i c #4d4d4d",
".A c #4e4e4e",
".K c #4f4f4f",
".U c #505050",
".B c #515151",
".8 c #525252",
".L c #545454",
".C c #555555",
".t c #565656",
".T c #575757",
".M c #585858",
"aD c #595959",
".V c #5a5a5a",
".4 c #5b5b5b",
".N c #5c5c5c",
"#k c #5d5d5d",
"aF c #5e5e5e",
".W c #5f5f5f",
".5 c #616161",
"aK c #626262",
".X c #636363",
".6 c #666666",
"#d c #676767",
".h c #686868",
"aI c #696969",
".7 c #6a6a6a",
"aC c #6b6b6b",
"#e c #6c6c6c",
"#8 c #707070",
"#f c #717171",
"#o c #727272",
"ax c #737373",
"#S c #747474",
".Z c #757575",
"aN c #767676",
"#p c #777777",
"#z c #787878",
"aM c #797979",
"aR c #7b7b7b",
"#q c #7c7c7c",
"#n c #7d7d7d",
"#A c #7e7e7e",
"aJ c #7f7f7f",
"aB c #808080",
"ao c #818181",
"am c #828282",
"#L c #838383",
"#B c #848484",
"at c #858585",
"#M c #868686",
"ap c #878787",
"aa c #888888",
".J c #898989",
"af c #8b8b8b",
"#N c #8d8d8d",
"#l c #8e8e8e",
"az c #8f8f8f",
"aG c #909090",
"#I c #919191",
"aq c #939393",
"ay c #949494",
"#2 c #959595",
"#U c #969696",
"#V c #979797",
".n c #989898",
"aA c #999999",
"au c #9a9a9a",
"#j c #9b9b9b",
".l c #9c9c9c",
"av c #9d9d9d",
"ar c #9e9e9e",
"#3 c #9f9f9f",
"aw c #a0a0a0",
"#m c #a1a1a1",
"#r c #a2a2a2",
"aH c #a3a3a3",
"aj c #a4a4a4",
"an c #a5a5a5",
"a# c #a6a6a6",
"#9 c #a7a7a7",
"ab c #a8a8a8",
".g c #a9a9a9",
"ak c #aaaaaa",
".9 c #ababab",
"ai c #acacac",
".z c #adadad",
"ac c #afafaf",
"#4 c #b0b0b0",
"ad c #b2b2b2",
"#5 c #b3b3b3",
"ae c #b5b5b5",
"#6 c #b7b7b7",
"#W c #b8b8b8",
"al c #b9b9b9",
"#y c #bababa",
"#X c #bbbbbb",
"#7 c #bdbdbd",
"#Y c #bfbfbf",
"#O c #c0c0c0",
"ah c #c1c1c1",
"#Z c #c2c2c2",
"#P c #c3c3c3",
"#K c #c5c5c5",
"#Q c #c6c6c6",
".P c #c7c7c7",
"#0 c #c8c8c8",
"#c c #c9c9c9",
"#x c #cacaca",
"#D c #cbcbcb",
"#C c #cdcdcd",
"#E c #cecece",
"#R c #d0d0d0",
"#F c #d2d2d2",
"#s c #d3d3d3",
"#h c #d4d4d4",
"#G c #d5d5d5",
"#t c #d6d6d6",
".q c #d7d7d7",
"#H c #d8d8d8",
"#u c #d9d9d9",
"#i c #dbdbdb",
"ag c #dcdcdc",
"#v c #dddddd",
"#. c #dedede",
"a. c #dfdfdf",
"#w c #e0e0e0",
".w c #e1e1e1",
".m c #e3e3e3",
".s c #e4e4e4",
".r c #e5e5e5",
"## c #e6e6e6",
"#J c #e7e7e7",
".y c #e8e8e8",
"#a c #e9e9e9",
"#1 c #eaeaea",
"#T c #ebebeb",
".x c #ececec",
".F c #ededed",
".0 c #eeeeee",
"#b c #f0f0f0",
".1 c #f1f1f1",
".I c #f2f2f2",
".2 c #f4f4f4",
".H c #f6f6f6",
".3 c #f7f7f7",
".Q c #f8f8f8",
".G c #fafafa",
".R c #fbfbfb",
".S c #fcfcfc",
"Qt c #ffffff",
"QtQtQtQtQtQtQtQtQtQtQtQtQtQtQtQtQtQtQtQtQtQtQtQtQtQtQtQtQtQtQtQtQtQtQtQtQtQtQtQtQtQtQtQtQtQtQtQt",
"QtQtQtQtQtQtQtQtQtQtQtQtQtQtQtQtQtQtQtQtQtQtQtQtQtQtQtQtQtQtQtQtQtQtQtQtQtQtQtQtQtQtQtQtQtQtQtQt",
"QtQtQtQtQtQtQtQtQtQtQtQtQtQtQtQtQtQtQtQtQtQtQtQtQtQtQtQtQtQtQtQtQtQtQtQtQtQtQtQtQtQtQtQtQtQtQtQt",
"QtQtQtQtQtQtQtQtQtQtQtQtQtQtQtQtQtQtQtQtQtQtQtQtQtQtQtQtQtQtQtQtQtQtQtQtQtQtQtQtQtQtQtQtQtQtQtQt",
"QtQtQtQtQtQtQtQtQtQtQtQtQtQtQtQtQtQtQtQtQtQtQtQtQtQtQtQtQtQtQtQtQtQtQtQtQtQtQtQtQtQtQtQtQtQtQtQt",
"QtQtQtQtQtQtQtQtQtQtQtQtQtQtQtQtQtQtQtQtQtQtQtQtQtQtQtQtQtQtQtQtQtQtQtQtQtQtQtQtQtQtQtQtQtQtQtQt",
"QtQtQtQtQtQtQtQtQtQtQtQtQtQtQtQtQtQtQtQtQtQtQtQtQtQtQtQtQtQtQtQtQtQtQtQtQtQtQtQtQtQtQtQtQtQtQtQt",
"QtQtQtQtQtQtQtQtQtQtQtQtQtQtQtQtQtQtQtQtQtQtQtQtQtQtQtQtQtQtQtQtQtQtQtQtQtQtQtQtQtQtQtQtQtQtQtQt",
"QtQtQtQtQtQtQtQtQtQtQtQtQtQtQtQtQtQtQtQtQtQtQtQtQtQtQtQtQtQtQtQtQtQtQtQtQtQtQtQtQtQtQtQtQtQtQtQt",
"QtQtQtQtQtQtQtQtQtQtQtQtQtQtQtQtQtQtQtQtQtQtQtQtQtQtQtQtQtQtQtQtQtQtQtQtQt.#.#.#QtQtQtQtQtQtQtQt",
"QtQtQtQtQtQtQtQtQtQtQtQtQtQtQtQtQtQtQtQtQtQtQtQtQtQtQtQtQtQtQtQtQtQtQtQtQtQt.#.#.#QtQtQtQtQtQtQt",
"QtQtQtQtQtQtQtQtQtQtQtQtQtQtQtQtQtQtQtQtQtQtQtQtQtQtQtQtQtQtQtQtQtQtQtQtQtQtQt.#.#QtQtQtQtQtQtQt",
"QtQtQtQtQtQtQtQtQtQtQtQtQtQtQtQtQtQt.a.b.c.d.eQtQtQtQtQtQtQtQtQtQt.#QtQtQtQtQtQt.#.#QtQtQtQtQtQt",
"QtQtQtQtQtQtQtQtQtQtQtQtQtQtQtQt.a.f.g.h.i.j.aQtQtQtQtQtQtQtQtQtQt.#.#QtQtQtQtQt.#.#QtQtQtQtQtQt",
"QtQtQtQtQtQtQtQtQtQtQtQtQtQt.e.k.l.m.n.i.i.i.oQtQtQtQtQtQtQtQtQtQtQt.#.#QtQtQtQtQt.#.#QtQtQtQtQt",
"QtQtQtQtQtQtQtQtQtQtQtQtQtQt.p.q.r.s.t.i.i.i.u.aQtQtQtQtQtQtQtQtQtQtQt.#.#QtQtQtQt.#.#QtQtQtQtQt",
"QtQtQtQtQtQtQtQtQtQtQtQt.e.v.w.x.y.z.i.i.A.B.C.DQtQtQtQtQtQtQtQtQtQtQtQt.#.#QtQtQt.#.#.#QtQtQtQt",
"QtQtQtQtQtQtQtQtQtQtQtQt.E.F.G.H.I.J.i.K.L.M.N.OQtQtQtQtQtQtQtQtQtQtQtQtQt.#QtQtQtQt.#.#QtQtQtQt",
"QtQtQtQtQtQtQtQtQtQtQt.a.P.Q.R.S.S.T.U.C.V.W.X.YQtQtQtQtQtQtQt.#.#QtQtQtQt.#.#QtQtQt.#.#QtQtQtQt",
"QtQtQtQtQtQtQt.e.a.a.a.Z.0.1.2.3.s.U.t.4.5.6.7.8.aQtQtQtQtQtQtQt.#.#QtQtQt.#.#QtQtQt.#.#QtQtQtQt",
"QtQtQtQtQtQtQt.a.i.g.9#.###a.F#b#c.C.4.5#d#e#f.W.aQtQtQtQtQtQtQtQt.#QtQtQtQt.#QtQtQt.#.#QtQtQtQt",
"QtQtQtQtQtQtQt#g#h#h#h#i#..w.r.y#j#k#l#m#n#o#p#q.aQtQtQtQtQtQtQtQtQt.#QtQtQt.#.#QtQtQt.#.#QtQtQt",
"QtQtQtQtQtQt.a#r.x.x#i#s#t#u#v#w#j.J#i#x#y#z#A#B.aQtQtQtQtQtQtQtQtQt.#QtQtQt.#.#QtQtQt.#.#QtQtQt",
"QtQtQtQtQtQt.a#w#w#w#C#D#E#F#G#H#I#j#J#K#K#L#M#N.aQtQtQtQtQtQtQtQtQt.#QtQtQt.#.#QtQtQt.#.#QtQtQt",
"QtQtQtQtQtQt.a#s#s#s#O#P#Q#x#C#R#S.z#T#K#K#U#l#V.aQtQtQtQtQtQtQtQtQt.#QtQtQtQt.#QtQtQt.#.#QtQtQt",
"QtQtQtQtQtQt.a#K#K#K#W#X#Y#Z#K#0#o.z#1#K#K#j#2#3.aQtQtQtQtQtQtQtQtQt.#QtQtQtQt.#QtQtQt.#.#QtQtQt",
"QtQtQtQtQtQt.a#W#W#W#4#5#6#y#7#O#8#9a.#K#K.l.la#.aQtQtQtQtQtQtQtQtQt.#QtQtQt.#.#QtQtQt.#.#QtQtQt",
"QtQtQtQtQtQt.aaa#9#9ab.9acadae#Waf#2ag#Kah#V#rai.aQtQtQtQtQtQtQtQtQt.#QtQtQt.#.#QtQtQt.#.#QtQtQt",
"QtQtQtQtQtQtQt.f#2#2.laj#9ak.z#4aa#pal#X.9#j#9ad.aQtQtQtQtQtQtQtQtQt.#QtQtQt.#.#QtQtQt.#QtQtQtQt",
"QtQtQtQtQtQtQt.a.8am.J.l#3#ranabao.Z#napaqarakae.aQtQtQtQtQtQtQtQt.#QtQtQtQt.#QtQtQt.#.#QtQtQtQt",
"QtQtQtQtQtQtQtQt.aas.Oat#Uauavaw#lax#Aaaayawaiaa.aQtQtQtQtQtQtQtQt.#QtQtQtQt.#QtQtQt.#.#QtQtQtQt",
"QtQtQtQtQtQtQtQtQtQtQt.E#MazaAaA#U#e#Aaaayawai#nQtQtQtQtQtQtQtQt.#QtQtQtQt.#.#QtQtQt.#.#QtQtQtQt",
"QtQtQtQtQtQtQtQtQtQtQt.a.TaBaz.naAaC#napaq#3akaDQtQtQtQtQtQtQt.#QtQtQtQtQt.#QtQtQtQt.#.#QtQtQtQt",
"QtQtQtQtQtQtQtQtQtQtQtQtaEaFaoaz#j.Z#qat#I.lab.pQtQtQtQtQtQtQtQtQtQtQtQt.#.#QtQtQt.#.#QtQtQtQtQt",
"QtQtQtQtQtQtQtQtQtQtQtQtQtaE.WamaG#L#Sam#N.naH.aQtQtQtQtQtQtQtQtQtQtQt.#.#QtQtQtQt.#.#QtQtQtQtQt",
"QtQtQtQtQtQtQtQtQtQtQtQtQtQtaEaD#L#IaIaJ.JayaK.aQtQtQtQtQtQtQtQtQtQt.#.#.#QtQtQt.#.#.#QtQtQtQtQt",
"QtQtQtQtQtQtQtQtQtQtQtQtQtQtQt.aaL#qaMaN#L#laOQtQtQtQtQtQtQtQtQtQt.#.#.#QtQtQtQt.#.#QtQtQtQtQtQt",
"QtQtQtQtQtQtQtQtQtQtQtQtQtQtQtQtQtaPaQ#daR.N.aQtQtQtQtQtQtQtQtQtQt.#QtQtQtQtQt.#.#.#QtQtQtQtQtQt",
"QtQtQtQtQtQtQtQtQtQtQtQtQtQtQtQtQtQtQt.aaP.aQtQtQtQtQtQtQtQtQtQtQtQtQtQtQtQt.#.#.#QtQtQtQtQtQtQt",
"QtQtQtQtQtQtQtQtQtQtQtQtQtQtQtQtQtQtQtQtQtQtQtQtQtQtQtQtQtQtQtQtQtQtQtQtQtQt.#.#QtQtQtQtQtQtQtQt",
"QtQtQtQtQtQtQtQtQtQtQtQtQtQtQtQtQtQtQtQtQtQtQtQtQtQtQtQtQtQtQtQtQtQtQtQtQt.#.#QtQtQtQtQtQtQtQtQt",
"QtQtQtQtQtQtQtQtQtQtQtQtQtQtQtQtQtQtQtQtQtQtQtQtQtQtQtQtQtQtQtQtQtQtQtQtQtQtQtQtQtQtQtQtQtQtQtQt",
"QtQtQtQtQtQtQtQtQtQtQtQtQtQtQtQtQtQtQtQtQtQtQtQtQtQtQtQtQtQtQtQtQtQtQtQtQtQtQtQtQtQtQtQtQtQtQtQt",
"QtQtQtQtQtQtQtQtQtQtQtQtQtQtQtQtQtQtQtQtQtQtQtQtQtQtQtQtQtQtQtQtQtQtQtQtQtQtQtQtQtQtQtQtQtQtQtQt",
"QtQtQtQtQtQtQtQtQtQtQtQtQtQtQtQtQtQtQtQtQtQtQtQtQtQtQtQtQtQtQtQtQtQtQtQtQtQtQtQtQtQtQtQtQtQtQtQt",
"QtQtQtQtQtQtQtQtQtQtQtQtQtQtQtQtQtQtQtQtQtQtQtQtQtQtQtQtQtQtQtQtQtQtQtQtQtQtQtQtQtQtQtQtQtQtQtQt",
"QtQtQtQtQtQtQtQtQtQtQtQtQtQtQtQtQtQtQtQtQtQtQtQtQtQtQtQtQtQtQtQtQtQtQtQtQtQtQtQtQtQtQtQtQtQtQtQt",
"QtQtQtQtQtQtQtQtQtQtQtQtQtQtQtQtQtQtQtQtQtQtQtQtQtQtQtQtQtQtQtQtQtQtQtQtQtQtQtQtQtQtQtQtQtQtQtQt",
"QtQtQtQtQtQtQtQtQtQtQtQtQtQtQtQtQtQtQtQtQtQtQtQtQtQtQtQtQtQtQtQtQtQtQtQtQtQtQtQtQtQtQtQtQtQtQtQt",
"QtQtQtQtQtQtQtQtQtQtQtQtQtQtQtQtQtQtQtQtQtQtQtQtQtQtQtQtQtQtQtQtQtQtQtQtQtQtQtQtQtQtQtQtQtQtQtQt"};
