/* XPM */
static char *dummy[]={
"48 50 172 2",
".# c #000000",
".B c #060606",
"aC c #070707",
".c c #0a0a0a",
".i c #0f0f0f",
"aN c #111111",
".b c #131313",
"aq c #161616",
".m c #1c1c1c",
".M c #1d1d1d",
".a c #202020",
"aM c #252525",
".n c #2b2b2b",
".t c #2e2e2e",
".C c #2f2f2f",
".W c #333333",
".s c #353535",
"#e c #373737",
".d c #383838",
"aJ c #3d3d3d",
".h c #3e3e3e",
"aO c #4c4c4c",
".g c #4d4d4d",
".y c #4e4e4e",
".I c #4f4f4f",
".S c #505050",
".z c #515151",
".6 c #525252",
".J c #545454",
".A c #555555",
".r c #565656",
".R c #575757",
".K c #585858",
"aB c #595959",
".T c #5a5a5a",
".2 c #5b5b5b",
".L c #5c5c5c",
"#i c #5d5d5d",
"aD c #5e5e5e",
".U c #5f5f5f",
".3 c #616161",
"aI c #626262",
".V c #636363",
".4 c #666666",
"#b c #676767",
".f c #686868",
"aG c #696969",
".5 c #6a6a6a",
"aA c #6b6b6b",
"#c c #6c6c6c",
"#6 c #707070",
"#d c #717171",
"#m c #727272",
"av c #737373",
"#Q c #747474",
".X c #757575",
"aL c #767676",
"#n c #777777",
"#x c #787878",
"aK c #797979",
"aP c #7b7b7b",
"#o c #7c7c7c",
"#l c #7d7d7d",
"#y c #7e7e7e",
"aH c #7f7f7f",
"az c #808080",
"am c #818181",
"ak c #828282",
"#J c #838383",
"#z c #848484",
"ar c #858585",
"#K c #868686",
"an c #878787",
"a. c #888888",
".H c #898989",
"ad c #8b8b8b",
"#L c #8d8d8d",
"#j c #8e8e8e",
"ax c #8f8f8f",
"aE c #909090",
"#G c #919191",
"ao c #939393",
"aw c #949494",
"#0 c #959595",
"#S c #969696",
"#T c #979797",
".l c #989898",
"ay c #999999",
"as c #9a9a9a",
"#h c #9b9b9b",
".j c #9c9c9c",
"at c #9d9d9d",
"ap c #9e9e9e",
"#1 c #9f9f9f",
"au c #a0a0a0",
"#k c #a1a1a1",
"#p c #a2a2a2",
"aF c #a3a3a3",
"ah c #a4a4a4",
"al c #a5a5a5",
"#9 c #a6a6a6",
"#7 c #a7a7a7",
"a# c #a8a8a8",
".e c #a9a9a9",
"ai c #aaaaaa",
".7 c #ababab",
"ag c #acacac",
".x c #adadad",
"aa c #afafaf",
"#2 c #b0b0b0",
"ab c #b2b2b2",
"#3 c #b3b3b3",
"ac c #b5b5b5",
"#4 c #b7b7b7",
"#U c #b8b8b8",
"aj c #b9b9b9",
"#w c #bababa",
"#V c #bbbbbb",
"#5 c #bdbdbd",
"#W c #bfbfbf",
"#M c #c0c0c0",
"af c #c1c1c1",
"#X c #c2c2c2",
"#N c #c3c3c3",
"#I c #c5c5c5",
"#O c #c6c6c6",
".N c #c7c7c7",
"#Y c #c8c8c8",
"#a c #c9c9c9",
"#v c #cacaca",
"#B c #cbcbcb",
"#A c #cdcdcd",
"#C c #cecece",
"#P c #d0d0d0",
"#D c #d2d2d2",
"#q c #d3d3d3",
"#f c #d4d4d4",
"#E c #d5d5d5",
"#r c #d6d6d6",
".o c #d7d7d7",
"#F c #d8d8d8",
"#s c #d9d9d9",
"#g c #dbdbdb",
"ae c #dcdcdc",
"#t c #dddddd",
".8 c #dedede",
"#8 c #dfdfdf",
"#u c #e0e0e0",
".u c #e1e1e1",
".k c #e3e3e3",
".q c #e4e4e4",
".p c #e5e5e5",
".9 c #e6e6e6",
"#H c #e7e7e7",
".w c #e8e8e8",
"#. c #e9e9e9",
"#Z c #eaeaea",
"#R c #ebebeb",
".v c #ececec",
".D c #ededed",
".Y c #eeeeee",
"## c #f0f0f0",
".Z c #f1f1f1",
".G c #f2f2f2",
".0 c #f4f4f4",
".F c #f6f6f6",
".1 c #f7f7f7",
".O c #f8f8f8",
".E c #fafafa",
".P c #fbfbfb",
".Q c #fcfcfc",
"Qt c #ffffff",
"QtQtQtQtQtQtQtQtQtQtQtQtQtQtQtQtQtQtQtQtQtQtQtQtQtQtQtQtQtQtQtQtQtQtQtQtQtQtQtQtQtQtQtQtQtQtQtQt",
"QtQtQtQtQtQtQtQtQtQtQtQtQtQtQtQtQtQtQtQtQtQtQtQtQtQtQtQtQtQtQtQtQtQtQtQtQtQtQtQtQtQtQtQtQtQtQtQt",
"QtQtQtQtQtQtQtQtQtQtQtQtQtQtQtQtQtQtQtQtQtQtQtQtQtQtQtQtQtQtQtQtQtQtQtQtQtQtQtQtQtQtQtQtQtQtQtQt",
"QtQtQtQtQtQtQtQtQtQtQtQtQtQtQtQtQtQtQtQtQtQtQtQtQtQtQtQtQtQtQtQtQtQtQtQtQtQtQtQtQtQtQtQtQtQtQtQt",
"QtQtQtQtQtQtQtQtQtQtQtQtQtQtQtQtQtQtQtQtQtQtQtQtQtQtQtQtQtQtQtQtQtQtQtQtQtQtQtQtQtQtQtQtQtQtQtQt",
"QtQtQtQtQtQtQtQtQtQtQtQtQtQtQtQtQtQtQtQtQtQtQtQtQtQtQtQtQtQtQtQtQtQtQtQtQtQtQtQtQtQtQtQtQtQtQtQt",
"QtQtQtQtQtQtQtQtQtQtQtQtQtQtQtQtQtQtQtQtQtQtQtQtQtQtQtQtQtQtQtQtQtQtQtQtQtQtQtQtQtQtQtQtQtQtQtQt",
"QtQtQtQtQtQtQtQtQtQtQtQtQtQtQtQtQtQtQtQtQtQtQtQtQtQtQtQtQtQtQtQtQtQtQtQtQtQtQtQtQtQtQtQtQtQtQtQt",
"QtQtQtQtQtQtQtQtQtQtQtQtQtQtQtQtQtQtQtQtQtQtQtQtQtQtQtQtQtQtQtQtQtQtQtQtQtQtQtQtQtQtQtQtQtQtQtQt",
"QtQtQtQtQtQtQtQtQtQtQtQtQtQtQtQtQtQtQtQtQtQtQtQtQtQtQtQtQtQtQtQtQtQtQtQtQtQtQtQtQtQtQtQtQtQtQtQt",
"QtQtQtQtQtQtQtQtQtQtQtQtQtQtQtQtQtQtQtQtQtQtQtQtQtQtQtQtQtQtQtQtQtQtQtQtQtQtQtQtQtQtQtQtQtQtQtQt",
"QtQtQtQtQtQtQtQtQtQtQtQtQtQtQtQtQtQtQtQtQtQtQtQtQtQtQtQtQtQtQtQtQtQtQtQtQtQtQtQtQtQtQtQtQtQtQtQt",
"QtQtQtQtQtQtQtQtQtQtQtQtQtQtQtQtQtQt.#.a.b.cQtQtQtQtQtQtQtQtQtQtQtQtQtQtQtQtQtQtQtQtQtQtQtQtQtQt",
"QtQtQtQtQtQtQtQtQtQtQtQtQtQtQtQt.#.d.e.f.g.h.#QtQtQtQtQtQtQtQtQtQtQtQtQtQtQtQtQtQtQtQtQtQtQtQtQt",
"QtQtQtQtQtQtQtQtQtQtQtQtQtQtQt.i.j.k.l.g.g.g.mQtQtQtQtQtQtQtQtQtQtQtQtQtQtQtQtQtQtQtQtQtQtQtQtQt",
"QtQtQtQtQtQtQtQtQtQtQtQtQtQt.n.o.p.q.r.g.g.g.sQtQtQtQtQtQtQtQtQtQtQtQtQtQtQtQtQtQtQtQtQtQtQtQtQt",
"QtQtQtQtQtQtQtQtQtQtQtQtQt.t.u.v.w.x.g.g.y.z.A.BQtQtQtQtQtQtQtQtQtQtQtQtQtQtQtQtQtQtQtQtQtQtQtQt",
"QtQtQtQtQtQtQtQtQtQtQtQt.C.D.E.F.G.H.g.I.J.K.L.MQtQtQtQtQtQtQtQtQtQtQtQtQtQtQtQtQtQtQtQtQtQtQtQt",
"QtQtQtQtQtQtQtQtQtQtQt.#.N.O.P.Q.Q.R.S.A.T.U.V.WQtQtQtQtQtQtQtQtQtQtQtQtQtQtQtQtQtQtQtQtQtQtQtQt",
"QtQtQtQtQtQtQtQt.#.#.#.X.Y.Z.0.1.q.S.r.2.3.4.5.6.#QtQtQtQtQtQtQtQtQtQtQtQtQtQtQtQtQtQtQtQtQtQtQt",
"QtQtQtQtQtQtQt.#.g.e.7.8.9#..D###a.A.2.3#b#c#d.U.#QtQtQtQtQtQtQtQtQtQtQtQtQtQtQtQtQtQtQtQtQtQtQt",
"QtQtQtQtQtQtQt#e#f#f#f#g.8.u.p.w#h#i#j#k#l#m#n#o.#QtQtQtQtQtQtQtQtQtQtQtQtQtQtQtQtQtQtQtQtQtQtQt",
"QtQtQtQtQtQt.##p.v.v#g#q#r#s#t#u#h.H#g#v#w#x#y#z.#QtQtQtQtQtQtQtQtQtQtQtQtQtQtQtQtQtQtQtQtQtQtQt",
"QtQtQtQtQtQt.##u#u#u#A#B#C#D#E#F#G#h#H#I#I#J#K#L.#QtQtQtQtQtQtQtQtQtQtQtQtQtQtQtQtQtQtQtQtQtQtQt",
"QtQtQtQtQtQt.##q#q#q#M#N#O#v#A#P#Q.x#R#I#I#S#j#T.#QtQtQtQtQtQtQtQtQtQtQtQtQtQtQtQtQtQtQtQtQtQtQt",
"QtQtQtQtQtQt.##I#I#I#U#V#W#X#I#Y#m.x#Z#I#I#h#0#1.#QtQtQtQtQtQtQtQtQtQtQtQtQtQtQtQtQtQtQtQtQtQtQt",
"QtQtQtQtQtQt.##U#U#U#2#3#4#w#5#M#6#7#8#I#I.j.j#9.#QtQtQtQtQtQtQtQtQtQtQtQtQtQtQtQtQtQtQtQtQtQtQt",
"QtQtQtQtQtQt.#a.#7#7a#.7aaabac#Uad#0ae#Iaf#T#pag.#QtQtQtQtQtQtQtQtQtQtQtQtQtQtQtQtQtQtQtQtQtQtQt",
"QtQtQtQtQtQtQt.d#0#0.jah#7ai.x#2a.#naj#V.7#h#7ab.#QtQtQtQtQtQtQtQtQtQtQtQtQtQtQtQtQtQtQtQtQtQtQt",
"QtQtQtQtQtQtQt.#.6ak.H.j#1#pala#am.X#lanaoapaiac.#QtQtQtQtQtQtQtQtQtQtQtQtQtQtQtQtQtQtQtQtQtQtQt",
"QtQtQtQtQtQtQtQt.#aq.Mar#Sasatau#jav#ya.awauaga..#QtQtQtQtQtQtQtQtQtQtQtQtQtQtQtQtQtQtQtQtQtQtQt",
"QtQtQtQtQtQtQtQtQtQtQt.C#Kaxayay#S#c#ya.awauag#lQtQtQtQtQtQtQtQtQtQtQtQtQtQtQtQtQtQtQtQtQtQtQtQt",
"QtQtQtQtQtQtQtQtQtQtQt.#.Razax.layaA#lanao#1aiaBQtQtQtQtQtQtQtQtQtQtQtQtQtQtQtQtQtQtQtQtQtQtQtQt",
"QtQtQtQtQtQtQtQtQtQtQtQtaCaDamax#h.X#oar#G.ja#.nQtQtQtQtQtQtQtQtQtQtQtQtQtQtQtQtQtQtQtQtQtQtQtQt",
"QtQtQtQtQtQtQtQtQtQtQtQtQtaC.UakaE#J#Qak#L.laF.#QtQtQtQtQtQtQtQtQtQtQtQtQtQtQtQtQtQtQtQtQtQtQtQt",
"QtQtQtQtQtQtQtQtQtQtQtQtQtQtaCaB#J#GaGaH.HawaI.#QtQtQtQtQtQtQtQtQtQtQtQtQtQtQtQtQtQtQtQtQtQtQtQt",
"QtQtQtQtQtQtQtQtQtQtQtQtQtQtQtQtaJ#oaKaL#J#jaMQtQtQtQtQtQtQtQtQtQtQtQtQtQtQtQtQtQtQtQtQtQtQtQtQt",
"QtQtQtQtQtQtQtQtQtQtQtQtQtQtQtQtQtaNaO#baP.L.#QtQtQtQtQtQtQtQtQtQtQtQtQtQtQtQtQtQtQtQtQtQtQtQtQt",
"QtQtQtQtQtQtQtQtQtQtQtQtQtQtQtQtQtQtQt.#aN.#QtQtQtQtQtQtQtQtQtQtQtQtQtQtQtQtQtQtQtQtQtQtQtQtQtQt",
"QtQtQtQtQtQtQtQtQtQtQtQtQtQtQtQtQtQtQtQtQtQtQtQtQtQtQtQtQtQtQtQtQtQtQtQtQtQtQtQtQtQtQtQtQtQtQtQt",
"QtQtQtQtQtQtQtQtQtQtQtQtQtQtQtQtQtQtQtQtQtQtQtQtQtQtQtQtQtQtQtQtQtQtQtQtQtQtQtQtQtQtQtQtQtQtQtQt",
"QtQtQtQtQtQtQtQtQtQtQtQtQtQtQtQtQtQtQtQtQtQtQtQtQtQtQtQtQtQtQtQtQtQtQtQtQtQtQtQtQtQtQtQtQtQtQtQt",
"QtQtQtQtQtQtQtQtQtQtQtQtQtQtQtQtQtQtQtQtQtQtQtQtQtQtQtQtQtQtQtQtQtQtQtQtQtQtQtQtQtQtQtQtQtQtQtQt",
"QtQtQtQtQtQtQtQtQtQtQtQtQtQtQtQtQtQtQtQtQtQtQtQtQtQtQtQtQtQtQtQtQtQtQtQtQtQtQtQtQtQtQtQtQtQtQtQt",
"QtQtQtQtQtQtQtQtQtQtQtQtQtQtQtQtQtQtQtQtQtQtQtQtQtQtQtQtQtQtQtQtQtQtQtQtQtQtQtQtQtQtQtQtQtQtQtQt",
"QtQtQtQtQtQtQtQtQtQtQtQtQtQtQtQtQtQtQtQtQtQtQtQtQtQtQtQtQtQtQtQtQtQtQtQtQtQtQtQtQtQtQtQtQtQtQtQt",
"QtQtQtQtQtQtQtQtQtQtQtQtQtQtQtQtQtQtQtQtQtQtQtQtQtQtQtQtQtQtQtQtQtQtQtQtQtQtQtQtQtQtQtQtQtQtQtQt",
"QtQtQtQtQtQtQtQtQtQtQtQtQtQtQtQtQtQtQtQtQtQtQtQtQtQtQtQtQtQtQtQtQtQtQtQtQtQtQtQtQtQtQtQtQtQtQtQt",
"QtQtQtQtQtQtQtQtQtQtQtQtQtQtQtQtQtQtQtQtQtQtQtQtQtQtQtQtQtQtQtQtQtQtQtQtQtQtQtQtQtQtQtQtQtQtQtQt",
"QtQtQtQtQtQtQtQtQtQtQtQtQtQtQtQtQtQtQtQtQtQtQtQtQtQtQtQtQtQtQtQtQtQtQtQtQtQtQtQtQtQtQtQtQtQtQtQt"};
